<?xml version="1.0" encoding="UTF-8"?>
<svg width="1200" height="600" viewBox="0 0 1200 600" xmlns="http://www.w3.org/2000/svg">
  <!-- Simple world map outline -->
  <path d="M150,100 C200,80 250,70 300,50 C350,30 400,20 450,40 C500,60 550,70 600,60 C650,50 700,30 750,40 C800,50 850,70 900,90 C950,110 1000,120 1050,100 L1050,200 C1000,220 950,210 900,190 C850,170 800,150 750,140 C700,130 650,150 600,160 C550,170 500,160 450,140 C400,120 350,130 300,150 C250,170 200,180 150,200 Z" fill="white" />
  <path d="M200,250 C250,230 300,220 350,240 C400,260 450,270 500,260 C550,250 600,230 650,240 C700,250 750,270 800,290 C850,310 900,320 950,300 L950,400 C900,420 850,410 800,390 C750,370 700,350 650,340 C600,330 550,350 500,360 C450,370 400,360 350,340 C300,320 250,330 200,350 Z" fill="white" />
  <path d="M300,400 C350,380 400,370 450,390 C500,410 550,420 600,410 C650,400 700,380 750,390 C800,400 850,420 900,440 C950,460 1000,470 1050,450 L1050,500 C1000,520 950,510 900,490 C850,470 800,450 750,440 C700,430 650,450 600,460 C550,470 500,460 450,440 C400,420 350,430 300,450 Z" fill="white" />
</svg>